<?xml version="1.0" encoding="UTF-8"?>
<svg width="126px" height="22px" viewBox="0 0 126 22" version="1.1" xmlns="http://www.w3.org/2000/svg" xmlns:xlink="http://www.w3.org/1999/xlink">
    <!-- Generator: Sketch 48.2 (47327) - http://www.bohemiancoding.com/sketch -->
    <title>splash/boss_logo</title>
    <desc>Created with Sketch.</desc>
    <defs></defs>
    <g id="Assets-SP" stroke="none" stroke-width="1" fill="none" fill-rule="evenodd">
        <g id="splash/boss_logo" fill="#FFFFFF">
            <g id="Lv1/img/BOSS-Logo" transform="translate(1.000000, 0.000000)">
                <path d="M119.691259,6.46004255 L119.691259,5.73217021 C119.691259,5.45459574 119.446429,5.17655319 119.166353,5.17655319 L108.078947,5.17655319 C107.693609,5.17655319 107.519267,5.38204255 107.519267,5.73217021 L107.519267,7.64102128 C107.519267,7.91906383 107.763158,8.16246809 108.078947,8.16246809 L121.258929,8.16246809 C123.769267,8.16246809 124.884398,9.82885106 124.884398,11.8102553 L124.884398,18.0980426 C124.884398,20.5629787 123.280075,21.7093191 121.258929,21.7093191 L105.949718,21.7093191 C103.716635,21.7093191 102.324248,20.2849362 102.324248,18.0980426 L102.324248,15.0400426 L107.519267,15.0400426 L107.519267,15.872766 C107.519267,16.1526809 107.763158,16.3942128 108.078947,16.3942128 L119.166353,16.3942128 C119.583647,16.3942128 119.691259,16.1873191 119.691259,15.872766 L119.691259,14.0682979 C119.691259,13.7902553 119.446429,13.5454468 119.166353,13.5454468 L105.949718,13.5454468 C104.274436,13.5454468 102.324248,12.1229362 102.324248,9.93417021 L102.324248,3.61314894 C102.324248,1.73519149 103.716635,4.54747351e-13 105.949718,4.54747351e-13 L121.258929,4.54747351e-13 C123.630639,4.54747351e-13 124.884398,1.45714894 124.884398,3.61314894 L124.884398,6.46004255 L119.691259,6.46004255 Z M94.5108083,6.46004255 L94.5108083,5.73217021 C94.5108083,5.45459574 94.2659774,5.17655319 93.9534774,5.17655319 L82.8637218,5.17655319 C82.5140977,5.17655319 82.3406955,5.38204255 82.3406955,5.73217021 L82.3406955,7.64102128 C82.3406955,7.91906383 82.5488722,8.16246809 82.8637218,8.16246809 L96.0465226,8.16246809 C98.556391,8.16246809 99.6715226,9.82885106 99.6715226,11.8102553 L99.6715226,18.0980426 C99.6715226,20.5629787 98.1038534,21.7093191 96.0465226,21.7093191 L80.7711466,21.7093191 C78.5390038,21.7093191 77.143797,20.2849362 77.143797,18.0980426 L77.143797,15.0400426 L82.3406955,15.0400426 L82.3406955,15.872766 C82.3406955,16.1526809 82.5488722,16.3942128 82.8637218,16.3942128 L93.9534774,16.3942128 C94.3684211,16.3942128 94.5108083,16.1873191 94.5108083,15.872766 L94.5108083,14.0682979 C94.5108083,13.7902553 94.2307331,13.5454468 93.9534774,13.5454468 L80.7711466,13.5454468 C79.0958647,13.5454468 77.143797,12.1229362 77.143797,9.93417021 L77.143797,3.61314894 C77.143797,1.73519149 78.5390038,4.54747351e-13 80.7711466,4.54747351e-13 L96.0465226,4.54747351e-13 C98.4511278,4.54747351e-13 99.6715226,1.45714894 99.6715226,3.61314894 L99.6715226,6.46004255 L94.5108083,6.46004255 Z M69.5046992,5.73217021 C69.5046992,5.41761702 69.2617481,5.17655319 68.9478383,5.17655319 L58.3110902,5.17655319 C58.0319549,5.17655319 57.7880639,5.41761702 57.7880639,5.73217021 L57.7880639,15.872766 C57.7880639,16.1526809 58.0319549,16.3942128 58.3110902,16.3942128 L68.9478383,16.3942128 C69.2617481,16.3942128 69.5046992,16.1526809 69.5046992,15.872766 L69.5046992,5.73217021 Z M71.0742481,21.7093191 L56.218515,21.7093191 C54.2302632,21.7093191 52.5921053,20.0766383 52.5921053,18.0980426 L52.5921053,3.61314894 C52.5921053,1.59710638 54.2302632,4.54747351e-13 56.218515,4.54747351e-13 L71.0742481,4.54747351e-13 C73.0639098,4.54747351e-13 74.7025376,1.59710638 74.7025376,3.61314894 L74.7025376,18.0980426 C74.7025376,20.0766383 73.0639098,21.7093191 71.0742481,21.7093191 Z M48.0230263,10.593234 C47.7791353,10.697617 47.8486842,10.9433617 48.0230263,11.0458723 C49.5587406,11.8795319 50.1508459,13.0258723 50.1508459,14.6936596 L50.1508459,18.0980426 C50.1508459,20.8410213 48.2683271,21.7093191 46.5225564,21.7093191 L26.2617481,21.7093191 L26.2617481,4.54747351e-13 L31.4572368,4.54747351e-13 L31.4572368,15.872766 C31.4572368,16.2228936 31.6325188,16.3942128 31.9816729,16.3942128 L44.2213346,16.3942128 C44.5714286,16.3942128 44.7786654,16.1526809 44.7786654,15.872766 L44.7786654,13.8946383 C44.7786654,13.6175319 44.5361842,13.3394894 44.2213346,13.3394894 L34.3181391,13.3394894 L34.3181391,7.98787234 L44.2213346,7.98787234 C44.606203,7.98787234 44.7786654,7.74446809 44.7786654,7.4327234 L44.7786654,5.73217021 C44.7786654,5.41761702 44.5014098,5.17655319 44.2213346,5.17655319 L34.3181391,5.17655319 L34.3181391,4.54747351e-13 L46.5225564,4.54747351e-13 C49.4530075,4.54747351e-13 50.1508459,1.80493617 50.1508459,3.61314894 L50.1508459,6.91174468 C50.1508459,9.8653617 48.2683271,10.4907234 48.0230263,10.593234 Z M20.0892857,1.70148936 L7.84727444,1.70148936 L7.84727444,3.0547234 L10.8120301,3.0547234 C15.206297,3.0547234 18.4483083,6.70251064 18.4483083,10.6288085 C18.4483083,14.5555745 15.4149436,18.2351915 10.7429511,18.2351915 C6.07048872,18.2351915 3.21052632,14.3444681 3.21052632,10.697617 L3.21052632,1.70148936 L1.71005639,1.70148936 L1.71005639,20.0078298 L20.0892857,20.0078298 L20.0892857,1.70148936 Z M0,21.7093191 L0,4.54747351e-13 L4.70817669,4.54747351e-13 L4.70817669,10.5248936 C4.70817669,14.0317872 7.32424812,16.8126809 10.9172932,16.8126809 C14.5089286,16.8126809 17.0897556,13.8581277 17.0897556,10.6288085 C17.0897556,7.39808511 14.2655075,4.51468085 10.8815789,4.51468085 L6.34680451,4.51468085 L6.34680451,4.54747351e-13 L21.7984023,4.54747351e-13 L21.7984023,21.7093191 L0,21.7093191 Z" id="BOSS-Logo"></path>
            </g>
        </g>
    </g>
</svg>